<svg width="26" height="24" viewBox="0 0 26 24" fill="none" xmlns="http://www.w3.org/2000/svg">
<path d="M19.532 6.72577H4.92936L4.87002 6.51751H4.86988C4.74055 6.0689 4.46913 5.67441 4.09648 5.39304C3.72383 5.11182 3.27013 4.95894 2.80321 4.95752H0.9841C0.749863 4.95752 0.560059 5.14732 0.560059 5.38156C0.560059 5.61565 0.749863 5.80546 0.9841 5.80546H2.80321C3.08585 5.80645 3.36055 5.89887 3.58627 6.06922C3.81185 6.23957 3.97612 6.47836 4.05447 6.74991L6.62343 15.7642C6.79321 16.3526 7.14926 16.8703 7.63817 17.2392C8.12709 17.6082 8.72248 17.8086 9.33492 17.8105H18.6916C18.9258 17.8105 19.1156 17.6207 19.1156 17.3864C19.1156 17.1523 18.9258 16.9625 18.6916 16.9625H9.33492C8.90662 16.9613 8.4904 16.821 8.14853 16.5631C7.80669 16.305 7.55782 15.9431 7.43913 15.5316L7.26749 14.9295H16.5606C17.4609 14.9285 18.3239 14.5704 18.9604 13.9338C19.5968 13.2972 19.9548 12.4343 19.9559 11.5341V7.14978C19.9559 6.91569 19.7661 6.72589 19.532 6.72589L19.532 6.72577ZM19.108 11.5342C19.1073 12.2095 18.8385 12.857 18.3611 13.3346C17.8835 13.8123 17.2361 14.0808 16.5606 14.0817H7.02587L5.69229 9.40266H14.8563C15.0906 9.40266 15.2804 9.21286 15.2804 8.97862C15.2804 8.74452 15.0906 8.55472 14.8563 8.55472H5.45062L5.17095 7.57378H19.1082L19.108 11.5342Z" fill="#1B1A1A"/>
<path d="M8.60712 19.1238C8.08074 19.1238 7.57576 19.3328 7.20355 19.705C6.83133 20.0772 6.62222 20.582 6.62207 21.1084C6.62207 21.6348 6.83104 22.1396 7.20325 22.5119C7.57547 22.8841 8.0803 23.0933 8.60668 23.0933C9.13306 23.0933 9.63789 22.8844 10.0101 22.5121C10.3825 22.1399 10.5916 21.6351 10.5916 21.1087C10.591 20.5826 10.3818 20.0781 10.0097 19.706C9.63775 19.3339 9.13321 19.1245 8.60708 19.1238L8.60712 19.1238ZM8.60712 22.2454C8.30559 22.2454 8.01641 22.1258 7.80319 21.9125C7.58997 21.6993 7.47015 21.4101 7.47015 21.1086C7.47001 20.8071 7.58982 20.5179 7.80305 20.3048C8.01628 20.0916 8.30544 19.9718 8.60698 19.9718C8.90851 19.9718 9.19768 20.0916 9.41076 20.3048C9.62398 20.518 9.74366 20.8072 9.74366 21.1087C9.74337 21.4101 9.62342 21.699 9.41033 21.9121C9.19725 22.1252 8.90837 22.245 8.6071 22.2454L8.60712 22.2454Z" fill="#1B1A1A"/>
<path d="M17.1309 19.1238C16.6045 19.1238 16.0997 19.3328 15.7275 19.705C15.3551 20.0771 15.146 20.5819 15.146 21.1083C15.1459 21.6348 15.355 22.1396 15.7272 22.5119C16.0993 22.8841 16.6041 23.0933 17.1305 23.0933C17.6568 23.0933 18.1618 22.8844 18.534 22.5121C18.9063 22.1399 19.1154 21.6351 19.1155 21.1087C19.1149 20.5826 18.9055 20.0781 18.5336 19.706C18.1615 19.3339 17.6571 19.1245 17.1309 19.1238L17.1309 19.1238ZM17.1309 22.2454C16.8294 22.2454 16.5402 22.1258 16.327 21.9125C16.1137 21.6993 15.9939 21.4101 15.9939 21.1086C15.9939 20.8071 16.1137 20.5179 16.3268 20.3048C16.5401 20.0916 16.8292 19.9718 17.1308 19.9718C17.4323 19.9718 17.7215 20.0916 17.9347 20.3048C18.1478 20.518 18.2676 20.8072 18.2674 21.1087C18.2672 21.4101 18.1473 21.699 17.9343 21.9121C17.7212 22.1252 17.4323 22.245 17.1309 22.2454L17.1309 22.2454Z" fill="#1B1A1A"/>
<path d="M16.5453 9.28089C16.6251 9.35812 16.7313 9.40198 16.8422 9.40369C16.8991 9.40355 16.9553 9.39205 17.0076 9.3699C17.0583 9.34932 17.1043 9.31908 17.1433 9.28089C17.1833 9.24086 17.215 9.1933 17.2367 9.14106C17.3053 8.98249 17.2679 8.79808 17.1433 8.67868C17.1045 8.63921 17.0584 8.60756 17.0077 8.58555C16.8491 8.51812 16.6654 8.55503 16.5453 8.67868C16.4208 8.79821 16.3836 8.98262 16.4522 9.14106C16.4736 9.1933 16.5053 9.24086 16.5453 9.28089L16.5453 9.28089Z" fill="#1B1A1A"/>
<ellipse cx="20.883" cy="4.95279" rx="4.22164" ry="4.08353" transform="rotate(86.6539 20.883 4.95279)" fill="#781414"/>
<path d="M19.7054 7.01855V6.69455H20.6774V3.25055L19.9034 3.75455L19.7354 3.47255L20.7794 2.78855H21.0434V6.69455H21.9554V7.01855H19.7054Z" fill="white"/>
</svg>
