<svg width="85" height="36" viewBox="0 0 85 36" fill="none" xmlns="http://www.w3.org/2000/svg">
<path d="M26.9229 23.0722C26.8938 22.949 26.8686 22.8221 26.8286 22.7096V22.7098C26.6736 22.2047 26.4102 21.7395 26.0564 21.3468C25.527 20.761 24.8183 20.367 24.0413 20.227C24.0992 19.5926 24.1536 18.8604 24.2009 18.052L24.2878 16.3231L24.324 15.3879C24.3354 15.1948 24.3354 15.0011 24.324 14.8079L24.2805 14.4888L24.2079 14.1736V14.1738C24.0178 13.5033 23.6383 12.9018 23.1149 12.4416C22.5915 11.9812 21.9468 11.6816 21.2576 11.5784C20.8541 11.537 20.4488 11.5188 20.0432 11.5241C18.5935 11.5023 17.0638 11.4915 15.5523 11.4915C14.0409 11.4915 12.5256 11.4915 11.0615 11.5205H11.0612C10.6559 11.5157 10.2504 11.5339 9.84709 11.5749C9.15633 11.6758 8.50933 11.9739 7.98395 12.4338C7.45881 12.8935 7.07727 13.4952 6.88562 14.1665C6.82924 14.3754 6.7903 14.589 6.76982 14.8044C6.75793 14.9976 6.75793 15.1913 6.76982 15.3844L6.80597 16.3196L6.89295 18.0485C6.93644 18.8025 6.98726 19.4983 7.03783 20.0857C6.51926 20.1752 6.02545 20.3729 5.5881 20.6654C4.64504 21.2927 4.03086 22.3081 3.91357 23.4347V23.8334V27.7842C3.91357 27.9003 3.91357 28.0452 3.93532 28.1756C3.95706 28.3061 3.97527 28.4403 3.99701 28.5708C4.22431 29.6102 4.88343 30.504 5.80933 31.0284C6.25483 31.2825 6.74864 31.4405 7.25906 31.4923C7.38599 31.4923 7.50912 31.4923 7.62163 31.5105H8.49847L10.6443 31.4779C9.66937 32.4528 8.70146 34.0151 8.64715 34.896L8.6474 34.8958C8.77129 35.0252 8.90985 35.1395 9.06053 35.2366C9.18038 35.3344 9.31185 35.4171 9.45193 35.4831C10.5394 35.0553 12.2683 32.7464 12.5074 31.4489C14.7185 31.4089 16.7665 31.3584 18.5823 31.3002C18.6983 32.5581 20.5107 35.0336 21.6489 35.4796C21.8095 35.4007 21.9604 35.3033 22.0982 35.1896C22.231 35.1056 22.3528 35.006 22.4608 34.8922C22.4029 33.9281 21.2647 32.181 20.2136 31.2385C21.2646 31.1986 22.2142 31.1589 23.0552 31.1116V31.1118C23.2976 31.0575 23.4562 30.8244 23.4177 30.5789C23.4276 30.3561 23.2739 30.1594 23.0552 30.1149C19.6952 29.9336 14.5081 29.8032 8.5022 29.7197H7.46911V29.72C7.21249 29.6866 6.96572 29.6001 6.74425 29.4661C6.29041 29.1931 5.97233 28.742 5.86715 28.2229L5.84187 28.0272V23.6304C5.90255 23.0929 6.20039 22.6107 6.65372 22.3157C7.10706 22.0206 7.66862 21.9435 8.18462 22.1053C8.70061 22.2672 9.11758 22.651 9.32133 23.1521C9.37114 23.2755 9.40502 23.4044 9.42272 23.5362C9.44497 23.6934 9.45331 23.8524 9.44826 24.011V25.258C9.44699 25.5267 9.55546 25.7846 9.74812 25.9717C9.94103 26.1591 10.2017 26.2599 10.4705 26.2511C13.9899 26.2511 17.4078 26.222 20.6195 26.1859H20.6412H20.641C20.888 26.1859 21.1246 26.0862 21.2973 25.9095C21.47 25.733 21.5641 25.4941 21.558 25.2471V23.7974C21.5512 23.2765 21.7545 22.7752 22.1221 22.406C22.4895 22.0372 22.9901 21.8318 23.5107 21.8364C24.0315 21.8409 24.5283 22.0554 24.8891 22.4308C25.0937 22.6366 25.2517 22.8839 25.3531 23.1557L25.4148 23.3622L25.4547 23.5724V24.0869L25.5126 26.3232L25.5452 27.3707V27.8564V27.8569C25.5455 27.9783 25.5371 28.0994 25.52 28.2195C25.4388 28.6966 25.2062 29.1351 24.8565 29.4698C24.5392 29.7732 24.1417 29.9795 23.7112 30.0644C23.5006 30.1577 23.3777 30.38 23.4103 30.608C23.4093 30.7208 23.4543 30.829 23.5352 30.9079C23.6159 30.9865 23.7253 31.0287 23.8381 31.0249C24.4778 30.9691 25.0869 30.7256 25.5888 30.3253C26.1751 29.8674 26.594 29.2292 26.7814 28.5092C26.8254 28.3125 26.8532 28.1125 26.8646 27.9112C26.8646 27.7082 26.8646 27.5487 26.8863 27.3856L26.9189 26.338L26.9768 24.1017V23.4456C26.9589 23.3333 26.9407 23.2064 26.9227 23.0721L26.9229 23.0722ZM21.4098 20.7345C20.9006 21.0636 20.4791 21.5114 20.1811 22.0393C19.8827 22.5855 19.7232 23.1966 19.7171 23.819V24.3191C17.0674 24.2939 14.3019 24.2757 11.4639 24.2683V24.0109C11.47 23.754 11.4553 23.4972 11.4204 23.2426C11.3807 22.9619 11.3077 22.6868 11.2027 22.4234C10.7858 21.3481 9.90317 20.5201 8.80335 20.1727C8.59628 20.1092 8.38415 20.0645 8.16898 20.0384C8.22208 19.444 8.27037 18.7735 8.31386 18.0269L8.40084 16.298L8.43699 15.3628H8.43725C8.44003 15.2353 8.4509 15.1082 8.46986 14.982C8.48958 14.8715 8.5174 14.7623 8.5533 14.6558C8.71335 14.2245 9.02535 13.8662 9.4304 13.6483C9.64101 13.5381 9.87135 13.4703 10.1083 13.4488C10.2896 13.4271 10.7136 13.4488 11.0688 13.4488C12.5185 13.4706 14.0482 13.4779 15.5597 13.4779C17.0712 13.4779 18.5864 13.4779 20.0506 13.4453C20.4131 13.4453 20.8298 13.4235 21.0111 13.4453H21.0113C21.245 13.4703 21.4715 13.5404 21.6783 13.6519C22.0872 13.8731 22.4007 14.2369 22.5589 14.6741L22.6098 14.8371L22.6424 15.0038C22.6611 15.1312 22.672 15.2594 22.675 15.3881L22.7111 16.3233L22.7946 18.0486C22.8416 18.8461 22.8924 19.5636 22.9503 20.1871C22.4027 20.2528 21.8765 20.4399 21.41 20.7345L21.4098 20.7345Z" fill="#1B1A1A"/>
<path d="M24.9436 8.02652C24.9906 6.07284 25.0306 3.93436 25.0559 1.50215H25.0561C25.0589 1.25589 24.9638 1.01873 24.7919 0.842727C24.62 0.666725 24.3851 0.566128 24.1391 0.563345H24.1209L20.4636 0.526936C20.2072 0.525167 19.9607 0.625287 19.7784 0.805562C19.5961 0.985836 19.4932 1.23134 19.4922 1.48771V3.37615L16.1611 0.733781C15.9871 0.593455 15.7702 0.516846 15.5467 0.516846C15.3232 0.516846 15.1062 0.593455 14.9323 0.733781C8.79221 5.75385 3.05445 10.6038 0.0712389 13.3838C-0.055682 13.5034 -0.00840624 13.7752 0.176418 13.9818C0.361243 14.1883 0.567809 14.2465 0.69473 14.1557C3.91355 11.8939 9.57512 7.52261 15.5448 2.77432L19.8399 6.23942C20.0359 6.39592 20.2834 6.47253 20.5335 6.45382C20.7833 6.43536 21.0169 6.32285 21.1875 6.13929C21.3579 5.95573 21.4528 5.71427 21.453 5.46368V2.47691H23.2001C23.2292 4.65183 23.2653 6.62338 23.3123 8.41777V8.46126C23.3192 8.69336 23.4297 8.91004 23.6132 9.05213C26.513 11.3211 28.7928 13.0394 30.4347 14.1774C30.5725 14.2752 30.8225 14.1774 30.9856 13.9526C31.1487 13.7278 31.156 13.5286 31.0473 13.4234C29.6312 12.0895 27.5966 10.2906 24.9433 8.02639L24.9436 8.02652Z" fill="#1B1A1A"/>
<path d="M37.5361 25.5168V16.2688H39.2481V25.5168H37.5361ZM37.5361 14.8928V13.1008H39.2481V14.8928H37.5361ZM41.6559 25.5168V16.2688H43.3679V17.1808C43.6773 16.8928 44.0186 16.6475 44.3919 16.4448C44.7653 16.2422 45.1759 16.1408 45.6239 16.1408C45.9973 16.1408 46.2799 16.2368 46.4719 16.4288C46.6746 16.6208 46.8133 16.8608 46.8879 17.1488C46.9733 17.4368 47.0159 17.7302 47.0159 18.0288V25.5168H45.3039V18.5248C45.3039 18.1942 45.2559 17.9382 45.1599 17.7568C45.0639 17.5755 44.8666 17.4848 44.5679 17.4848C44.3759 17.4848 44.1733 17.5435 43.9599 17.6608C43.7573 17.7675 43.5599 17.9008 43.3679 18.0608V25.5168H41.6559ZM51.7112 25.6448C51.2312 25.6448 50.8419 25.5542 50.5432 25.3728C50.2552 25.1915 50.0419 24.9355 49.9032 24.6048C49.7752 24.2742 49.7112 23.8848 49.7112 23.4368V17.4048H48.7352V16.2688H49.7112V13.5648H51.4232V16.2688H52.9112V17.4048H51.4232V23.3248C51.4232 23.6875 51.4819 23.9488 51.5992 24.1088C51.7165 24.2582 51.9405 24.3328 52.2712 24.3328C52.3565 24.3328 52.4525 24.3275 52.5592 24.3168C52.6765 24.3062 52.7885 24.2955 52.8952 24.2848V25.5488C52.6819 25.5808 52.4845 25.6022 52.3032 25.6128C52.1219 25.6342 51.9245 25.6448 51.7112 25.6448ZM57.2891 25.6448C56.5637 25.6448 56.0037 25.5062 55.6091 25.2288C55.2144 24.9408 54.9371 24.5248 54.7771 23.9808C54.6277 23.4262 54.5531 22.7488 54.5531 21.9488V19.8368C54.5531 19.0155 54.6331 18.3328 54.7931 17.7888C54.9531 17.2448 55.2304 16.8342 55.6251 16.5568C56.0304 16.2795 56.5851 16.1408 57.2891 16.1408C58.0677 16.1408 58.6384 16.3008 59.0011 16.6208C59.3744 16.9408 59.6197 17.4048 59.7371 18.0128C59.8544 18.6102 59.9131 19.3302 59.9131 20.1728V20.9248H56.2651V22.7808C56.2651 23.1542 56.2971 23.4582 56.3611 23.6928C56.4357 23.9275 56.5477 24.1035 56.6971 24.2208C56.8571 24.3275 57.0597 24.3808 57.3051 24.3808C57.5611 24.3808 57.7531 24.3222 57.8811 24.2048C58.0197 24.0768 58.1104 23.9008 58.1531 23.6768C58.2064 23.4422 58.2331 23.1702 58.2331 22.8608V22.3008H59.8971V22.6528C59.8971 23.5808 59.6997 24.3115 59.3051 24.8448C58.9104 25.3782 58.2384 25.6448 57.2891 25.6448ZM56.2651 19.9968H58.2331V19.1648C58.2331 18.7808 58.2117 18.4608 58.1691 18.2048C58.1264 17.9382 58.0357 17.7408 57.8971 17.6128C57.7691 17.4742 57.5611 17.4048 57.2731 17.4048C56.9957 17.4048 56.7824 17.4688 56.6331 17.5968C56.4944 17.7248 56.3984 17.9435 56.3451 18.2528C56.2917 18.5515 56.2651 18.9675 56.2651 19.5008V19.9968ZM62.0714 25.5168V16.2688H63.7834V17.5808C64.1248 17.0155 64.4661 16.6368 64.8074 16.4448C65.1488 16.2528 65.4901 16.1568 65.8314 16.1568C65.8741 16.1568 65.9114 16.1568 65.9434 16.1568C65.9861 16.1568 66.0394 16.1622 66.1034 16.1728V18.0608C65.9754 18.0075 65.8261 17.9648 65.6554 17.9328C65.4954 17.8902 65.3301 17.8688 65.1594 17.8688C64.8928 17.8688 64.6474 17.9328 64.4234 18.0608C64.2101 18.1782 63.9968 18.4128 63.7834 18.7648V25.5168H62.0714ZM67.8361 25.5168V16.2688H69.5481V25.5168H67.8361ZM67.8361 14.8928V13.1008H69.5481V14.8928H67.8361ZM74.4999 25.6448C73.8173 25.6448 73.2786 25.5062 72.8839 25.2288C72.4893 24.9515 72.2066 24.5568 72.0359 24.0448C71.8759 23.5328 71.7959 22.9302 71.7959 22.2368V19.5488C71.7959 18.8555 71.8759 18.2528 72.0359 17.7408C72.2066 17.2288 72.4893 16.8342 72.8839 16.5568C73.2786 16.2795 73.8173 16.1408 74.4999 16.1408C75.1826 16.1408 75.7159 16.2795 76.0999 16.5568C76.4946 16.8342 76.7719 17.2288 76.9319 17.7408C77.1026 18.2528 77.1879 18.8555 77.1879 19.5488V22.2368C77.1879 22.9302 77.1026 23.5328 76.9319 24.0448C76.7719 24.5568 76.4946 24.9515 76.0999 25.2288C75.7159 25.5062 75.1826 25.6448 74.4999 25.6448ZM74.4999 24.3808C74.8306 24.3808 75.0599 24.2848 75.1879 24.0928C75.3266 23.9008 75.4066 23.6502 75.4279 23.3408C75.4599 23.0208 75.4759 22.6902 75.4759 22.3488V19.4528C75.4759 19.1008 75.4599 18.7702 75.4279 18.4608C75.4066 18.1515 75.3266 17.9008 75.1879 17.7088C75.0599 17.5062 74.8306 17.4048 74.4999 17.4048C74.1693 17.4048 73.9346 17.5062 73.7959 17.7088C73.6573 17.9008 73.5719 18.1515 73.5399 18.4608C73.5186 18.7702 73.5079 19.1008 73.5079 19.4528V22.3488C73.5079 22.6902 73.5186 23.0208 73.5399 23.3408C73.5719 23.6502 73.6573 23.9008 73.7959 24.0928C73.9346 24.2848 74.1693 24.3808 74.4999 24.3808ZM79.3608 25.5168V16.2688H81.0728V17.5808C81.4141 17.0155 81.7555 16.6368 82.0968 16.4448C82.4381 16.2528 82.7795 16.1568 83.1208 16.1568C83.1635 16.1568 83.2008 16.1568 83.2328 16.1568C83.2755 16.1568 83.3288 16.1622 83.3928 16.1728V18.0608C83.2648 18.0075 83.1155 17.9648 82.9448 17.9328C82.7848 17.8902 82.6195 17.8688 82.4488 17.8688C82.1821 17.8688 81.9368 17.9328 81.7128 18.0608C81.4995 18.1782 81.2861 18.4128 81.0728 18.7648V25.5168H79.3608Z" fill="#555555"/>
</svg>
